<?xml version="1.0" encoding="UTF-8" standalone="no"?>
<svg
   xmlns:dc="http://purl.org/dc/elements/1.1/"
   xmlns:cc="http://creativecommons.org/ns#"
   xmlns:rdf="http://www.w3.org/1999/02/22-rdf-syntax-ns#"
   xmlns:svg="http://www.w3.org/2000/svg"
   xmlns="http://www.w3.org/2000/svg"
   xmlns:sodipodi="http://sodipodi.sourceforge.net/DTD/sodipodi-0.dtd"
   xmlns:inkscape="http://www.inkscape.org/namespaces/inkscape"
   inkscape:version="0.48.4 r9939"
   sodipodi:docname="car3.svg"
   xml:space="preserve"
   height="100%"
   id="Слой_1"
   style="enable-background:new 0 0 612 792;"
   version="1.1"
   viewBox="0 0 1500 800"
   width="100%"
   x="0px"
   y="0px"><sodipodi:namedview
     pagecolor="#ffffff"
     bordercolor="#666666"
     borderopacity="1"
     objecttolerance="10"
     gridtolerance="10"
     guidetolerance="10"
     inkscape:pageopacity="0"
     inkscape:pageshadow="2"
     inkscape:window-width="1855"
     inkscape:window-height="1176"
     id="namedview696"
     showgrid="false"
     inkscape:zoom="1.3425601"
     inkscape:cx="166.61226"
     inkscape:cy="458.19625"
     inkscape:window-x="65"
     inkscape:window-y="24"
     inkscape:window-maximized="1"
     inkscape:current-layer="Слой_1" /><metadata
     id="metadata16425"><RDF
       id="RDF4"><Work
         rdf:about=""
         id="Work6"><format
           id="format8">image/svg+xml</format><type
           rdf:resource="http://purl.org/dc/dcmitype/StillImage"
           id="type10" /></Work></RDF><rdf:RDF><cc:Work
         rdf:about=""><dc:format>image/svg+xml</dc:format><dc:type
           rdf:resource="http://purl.org/dc/dcmitype/StillImage" /><dc:title></dc:title></cc:Work></rdf:RDF></metadata><defs
     id="defs16423" /><namedview
     inkscape:current-layer="Слой_1"
     inkscape:cx="520.28069"
     inkscape:cy="458.33378"
     inkscape:pageopacity="0"
     inkscape:pageshadow="2"
     inkscape:window-height="1176"
     inkscape:window-maximized="1"
     inkscape:window-width="1859"
     inkscape:window-x="61"
     inkscape:window-y="24"
     inkscape:zoom="1.1919192"
     bordercolor="#666666"
     borderopacity="1"
     gridtolerance="10"
     guidetolerance="10"
     id="namedview16421"
     objecttolerance="10"
     pagecolor="#ffffff"
     showgrid="false" /><style
     id="style13835"
     type="text/css">
	.st0{fill-rule:evenodd;clip-rule:evenodd;fill:#FFFFFF;stroke:#000000;stroke-width:0.5;stroke-miterlimit:10;}
  .st1{fill-rule:evenodd;clip-rule:evenodd;fill:#8E9091;stroke:#000000;stroke-width:0.5;stroke-miterlimit:10;}
  .st2{fill-rule:evenodd;clip-rule:evenodd;stroke:#000000;stroke-width:0.5;stroke-miterlimit:10;}
  .st3{fill-rule:evenodd;clip-rule:evenodd;fill:#4B5353;stroke:#000000;stroke-width:0.5;stroke-miterlimit:10;}
  .st4{fill-rule:evenodd;clip-rule:evenodd;fill:#CFCFCF;stroke:#000000;stroke-width:0.5;stroke-miterlimit:10;}
  .st5{fill-rule:evenodd;clip-rule:evenodd;fill:#E8F2F1;stroke:#000000;stroke-width:0.5;stroke-miterlimit:10;}

  .st6{fill-rule:evenodd;clip-rule:evenodd;fill:none;stroke:#000000;stroke-width:0.707;stroke-linecap:round;stroke-linejoin:round;stroke-miterlimit:10;}
  .st7{fill-rule:evenodd;clip-rule:evenodd;fill:none;stroke:#000000;stroke-width:0.5;stroke-miterlimit:10;}
  .st8{fill-rule:evenodd;clip-rule:evenodd;fill:#ED2129;stroke:#000000;stroke-width:0.5;stroke-miterlimit:10;}
  .st9{fill-rule:evenodd;clip-rule:evenodd;fill:#CFCFCF;}
  .st10{fill-rule:evenodd;clip-rule:evenodd;fill:#FAE62A;stroke:#000000;stroke-width:0.5;stroke-miterlimit:10;}

  .st11{opacity:0.01;fill-rule:evenodd;clip-rule:evenodd;fill:#FFFFFF;stroke:#000000;stroke-width:0.707;stroke-linecap:round;stroke-linejoin:round;stroke-miterlimit:10;}
  /*path:hover {*/
    /*fill: lightsalmon;*/
    /*fill-opacity:1;*/
    /*opacity: 0.3;*/
  /*}*/

  .test:hover {
    fill: lightsalmon;
    fill-opacity:1;
    opacity: 0.3;
  }

  /*.test {*/
    /*fill-opacity:0.1;*/
    /*fill: #4B5353;*/
    /*stroke-width: 0.25;*/
  /*}*/

  .path-selected {
    fill: salmon;
    fill-opacity:1;
    opacity:0.5;
  }
  </style><path
     style="fill:#8e9091;fill-rule:evenodd;stroke:#000000;stroke-width:0.5;stroke-miterlimit:10"
     inkscape:connector-curvature="0"
     class="st1"
     d="m 444.35,517.95 c -0.1,6.4 -0.2,12.9 -0.4,19.4 -0.4,14.6 -1,29.2 -1,29.2 0,0 -7.1,-3.5 -10.9,-9.1 -3,-4.4 -4.7,-9.8 -5.8,-15.3 -1.2,-6.6 -0.9,-13.6 -1.2,-20.5 -0.3,-6.6 -0.3,-13.1 -0.3,-19.6 0,-7.3 0.1,-14.5 0.4,-21.7 0.2,-5.8 0.8,-11.5 0.8,-11.5 0,0 1.7,-10.2 3.6,-20.3 0.9,-4.9 2,-9.8 3.2,-14.6 0.9,-3.9 1.8,-7.7 2.8,-11.5 0.5,-2 1.1,-4 1.7,-6 0.8,-3.1 1.7,-6.3 2.5,-9.4 1.4,-4.8 2.9,-9.6 2.9,-9.6 0,0 0.2,4.3 0.4,8.7 0.3,7.6 0.6,15.3 0.9,22.9 0.2,5.4 0.4,10.8 0.5,16.2 0.1,5.4 0.2,10.8 0.3,16.2 0.1,6.2 0.1,12.4 0.1,18.6 0,6.2 0,12.4 -0.1,18.6 -0.2,6.3 -0.3,12.8 -0.4,19.3 l 0,0 z"
     id="path14799"
     clip-rule="evenodd"
     stroke-miterlimit="10" /><path
     style="fill:#e8f2f1;fill-rule:evenodd;stroke:#000000;stroke-width:0.5;stroke-miterlimit:10"
     inkscape:connector-curvature="0"
     class="st5"
     d="m 443.45,439.05 c 0.2,8.3 0.4,16.5 0.4,24.8 0.1,6.9 0.1,13.8 0.1,20.8 0,6.9 -0.1,13.8 -0.1,20.7 -0.1,6.9 -0.2,13.8 -0.4,20.7 -0.1,6.9 -0.2,13.8 -0.5,20.7 -0.3,7.8 -0.9,15.5 -0.9,15.5 l -1.8,1.2 c 0,0 -3.6,-2.4 -6,-5.7 -2.2,-3 -4,-6.3 -5.1,-9.7 -1.5,-4.7 -2.2,-9.5 -2.5,-14.5 -0.6,-9.9 -0.6,-19.9 -0.6,-29.9 0.1,-8.9 0,-17.8 0.6,-26.6 0.5,-7.8 1.8,-15.5 3,-23.2 0.5,-3.5 1.2,-7 2,-10.4 0.8,-4 1.7,-7.9 2.7,-11.8 0.9,-4.2 1.9,-8.3 1.9,-8.3 l 2.2,-0.2 4,-3.9 c 0,0.1 0.7,9.9 1,19.8 l 0,0 z"
     id="path14801"
     clip-rule="evenodd"
     stroke-miterlimit="10" /><path
     style="fill:#ed2129;fill-rule:evenodd;stroke:#000000;stroke-width:0.5;stroke-miterlimit:10"
     inkscape:connector-curvature="0"
     class="st8"
     d="m 452.25,704.25 c -1.7,3.2 -3.4,6.5 -5.4,9.4 -2.2,3.4 -4.7,6.7 -7.4,9.6 -3.2,3.3 -6.4,6.6 -10.2,9.1 -8.9,6.1 -18.9,10.7 -18.9,10.7 0,0 -0.9,6.1 -3,11.7 -1.9,5.3 -5.1,10.2 -5.1,10.2 0,0 8.4,-2.7 16.3,-6.5 3,-1.4 5.7,-3.1 8.3,-5 3.2,-2.4 6.4,-4.8 9.1,-7.8 4.4,-5 8.5,-10.2 12,-15.8 2.5,-4 4.7,-8.1 5.9,-12.6 1.2,-3.9 0.9,-8.2 1.2,-12.4 0.4,-4.2 0.4,-8.3 0.4,-8.3 0,0 -1.4,3.9 -3.2,7.7 l 0,0 z"
     id="path14807"
     clip-rule="evenodd"
     stroke-miterlimit="10" /><path
     style="fill:none;stroke:#000000;stroke-width:0.70700002;stroke-linecap:round;stroke-linejoin:round;stroke-miterlimit:10"
     inkscape:connector-curvature="0"
     class="st6"
     d="m 410.35,743.05 c 0,0 -7.1,3.2 -14.6,5 -13.2,3.2 -26.9,5.1 -26.9,5.1"
     id="path14823"
     clip-rule="evenodd"
     stroke-miterlimit="10" /><path
     style="fill:none;stroke:#000000;stroke-width:0.70700002;stroke-linecap:round;stroke-linejoin:round;stroke-miterlimit:10"
     inkscape:connector-curvature="0"
     class="st6"
     d="m 438.05,381.85 c 0,0 2.4,4.5 3.7,9.1 0.9,3 0.7,6.3 0.7,6.3"
     id="path14825"
     clip-rule="evenodd"
     stroke-miterlimit="10" /><path
     style="fill:none;stroke:#000000;stroke-width:0.70700002;stroke-linecap:round;stroke-linejoin:round;stroke-miterlimit:10"
     inkscape:connector-curvature="0"
     class="st6"
     d="m 455.35,699.45 c 0,0 -1.9,4.8 -4.4,9.1 -2.2,3.7 -4.3,7.5 -7.1,10.8 -3.7,4.5 -7.6,8.7 -12,12.4 -4.1,3.4 -8.9,5.8 -13.5,8.6 -3,1.7 -6.3,3.1 -6.3,3.1 0,0 -0.8,5.8 -2.7,11.2 -1.7,4.9 -4.6,9.4 -4.6,9.4"
     id="path14865"
     clip-rule="evenodd"
     stroke-miterlimit="10" /><path
     style="fill:none;stroke:#000000;stroke-width:0.70700002;stroke-linecap:round;stroke-linejoin:round;stroke-miterlimit:10"
     inkscape:connector-curvature="0"
     class="st6"
     d="m 453.25,704.15 c 0,0 0.1,3.5 -0.2,6.9 -0.3,2.7 -0.3,5.5 -1.2,7.9 -1.2,3.4 -3,6.5 -5,9.6 -2.7,4.2 -5.3,8.4 -8.7,11.9 -3.9,4 -8.3,7.5 -12.9,10.8 -3.6,2.5 -7.6,4.5 -11.5,6.5 -3.5,1.8 -7.1,3.1 -7.1,3.1"
     id="path14867"
     clip-rule="evenodd"
     stroke-miterlimit="10" /><path
     style="fill:none;stroke:#000000;stroke-width:0.70700002;stroke-linecap:round;stroke-linejoin:round;stroke-miterlimit:10"
     inkscape:connector-curvature="0"
     class="st6"
     d="m 449.95,710.35 c 0,0 0.9,0.8 1.4,1.8 0.9,2 1.3,4.2 1.3,4.2"
     id="path14869"
     clip-rule="evenodd"
     stroke-miterlimit="10" /><path
     style="fill:none;stroke:#000000;stroke-width:0.70700002;stroke-linecap:round;stroke-linejoin:round;stroke-miterlimit:10"
     inkscape:connector-curvature="0"
     class="st6"
     d="m 427.25,735.15 3.4,0 c 0,0 -0.1,-0.6 -0.4,-1.1 -0.2,-0.4 -0.6,-0.6 -0.6,-0.6"
     id="path14879"
     clip-rule="evenodd"
     stroke-miterlimit="10" /><path
     style="fill:none;stroke:#000000;stroke-width:0.70700002;stroke-linecap:round;stroke-linejoin:round;stroke-miterlimit:10"
     inkscape:connector-curvature="0"
     class="st6"
     d="m 445.85,666.95 0.6,-17.1 c 0,-0.1 0,-0.1 0.1,-0.3 0.1,-0.1 0.1,-0.1 0.1,-0.2 0.1,-0.1 0.4,-0.2 0.5,-0.1 l 2.7,0 c 0.1,0 0.2,0 0.3,0.1 0.1,0 0.1,0.1 0.2,0.1 0.1,0.1 0.2,0.4 0.2,0.5 l -0.6,16.8"
     id="path14917"
     clip-rule="evenodd"
     stroke-miterlimit="10" /><path
     style="fill:none;stroke:#000000;stroke-width:0.5;stroke-miterlimit:10"
     inkscape:connector-curvature="0"
     class="st7"
     d="m 456.25,658.95 c 0,-1.2 -0.1,-2.4 -0.4,-3.5 -0.3,-1.1 -0.7,-2.2 -1.2,-3.1 -0.5,-0.9 -1.2,-1.7 -1.9,-2.3 -0.6,-0.6 -1.4,-1.2 -2.2,-1.4 -0.8,-0.4 -1.6,-0.5 -2.4,-0.6 -0.9,0 -1.7,0.1 -2.4,0.4 -0.8,0.3 -1.6,0.7 -2.3,1.3 -0.8,0.6 -1.4,1.4 -2,2.2 -0.6,0.9 -1.1,1.9 -1.4,3 -0.4,1.1 -0.6,2.2 -0.6,3.5 -0.1,1.2 0.1,2.4 0.4,3.5 0.2,1.2 0.6,2.2 1.2,3.1 0.6,0.9 1.2,1.7 1.9,2.4 0.7,0.6 1.4,1.1 2.2,1.4 0.8,0.4 1.6,0.5 2.4,0.5 0.9,0.1 1.7,-0.1 2.4,-0.4 0.9,-0.3 1.6,-0.6 2.4,-1.3 0.7,-0.6 1.4,-1.3 2,-2.2 0.6,-0.9 1.1,-1.9 1.4,-3 0.2,-1.1 0.4,-2.3 0.5,-3.5 l 0,0 z"
     id="path14919"
     clip-rule="evenodd"
     stroke-miterlimit="10" /><path
     style="fill:none;stroke:#000000;stroke-width:0.70700002;stroke-linecap:round;stroke-linejoin:round;stroke-miterlimit:10"
     inkscape:connector-curvature="0"
     class="st6"
     d="m 446.55,650.25 c -0.4,0.1 -0.9,0.4 -1.4,0.6 -0.4,0.4 -1,0.8 -1.5,1.4 -0.5,0.6 -0.9,1.3 -1.3,2.1 -0.4,0.7 -0.6,1.6 -0.8,2.5 -0.2,0.9 -0.2,1.9 -0.1,2.8 0,0.9 0.2,1.8 0.5,2.6 0.2,0.9 0.6,1.6 1,2.2 0.4,0.6 0.9,1.2 1.5,1.7 0.5,0.4 1.1,0.7 1.6,0.9 1.2,0.4 2.3,0.4 3.5,-0.1 0.6,-0.2 1.2,-0.6 1.7,-1.1 0.6,-0.4 1.1,-1 1.5,-1.7 0.4,-0.6 0.8,-1.4 1.1,-2.3 0.3,-0.9 0.4,-1.8 0.5,-2.7 0.1,-0.9 0,-1.9 -0.2,-2.8 -0.1,-0.9 -0.4,-1.7 -0.8,-2.4 -0.4,-0.7 -0.8,-1.4 -1.2,-1.9 -0.5,-0.5 -0.9,-0.9 -1.4,-1.2"
     id="path14921"
     clip-rule="evenodd"
     stroke-miterlimit="10" /><path
     style="fill:#8e9091;fill-rule:evenodd;stroke:#000000;stroke-width:0.5;stroke-miterlimit:10"
     inkscape:connector-curvature="0"
     class="st1"
     d="m 180.65,455.55 c -0.4,0.6 -1.1,0.9 -1.7,0.9 -0.4,-0.1 -0.8,-0.6 -1.1,-1.2 l -2.2,-3.9 c 0,0 -5.7,-11.5 -12.2,-22.6 -3.7,-6.3 -7.8,-12.5 -12,-18.6 -4.3,-6.5 -9.1,-12.7 -9.1,-12.7 l -7.8,-9.9 c 0,0 -0.1,-8.3 0.1,-16.6 0.3,-6.6 1,-13 1,-13 l 3,4.5 -0.1,24.6 c 0,3.5 2.6,6.5 4.7,9.8 2.7,4.4 6.2,8.4 9.1,12.7 4.1,6 8.1,12.1 11.7,18.4 2.9,4.8 5.5,9.7 8.1,14.6 1.7,3.2 2.7,6.6 4.2,8.5 0.4,0.5 1,-0.1 1.7,-0.9 l 4.5,-5.5 2.1,5.6 -4,5.3 z"
     id="path14935"
     clip-rule="evenodd"
     stroke-miterlimit="10" /><path
     style="fill:#e8f2f1;fill-rule:evenodd;stroke:#000000;stroke-width:0.5;stroke-miterlimit:10"
     inkscape:connector-curvature="0"
     class="st5"
     d="m 158.35,394.85 c -9.3,-16.5 -19.6,-32.5 -19.6,-32.5 l -0.1,24.6 c 0,3.5 2.6,6.5 4.7,9.8 2.7,4.4 6.2,8.4 9.1,12.7 4.1,6 8.1,12.1 11.7,18.4 2.9,4.8 5.5,9.7 8.1,14.6 1.7,3.2 2.7,6.6 4.2,8.5 0.4,0.5 1,-0.1 1.7,-0.9 l 4.5,-5.5 c 0,0 -3.5,-9.4 -8,-18.5 -5.1,-10.6 -10.5,-21 -16.3,-31.2 z"
     id="path14937"
     clip-rule="evenodd"
     stroke-miterlimit="10" /><path
     style="fill:#ed2129;fill-rule:evenodd;stroke:#000000;stroke-width:0.5;stroke-miterlimit:10"
     inkscape:connector-curvature="0"
     class="st8"
     d="m 119.85,757.65 c 2.5,-2.2 4.5,-4.8 6.3,-7.6 2.1,-3.1 3.3,-6.6 3.3,-6.6 0,0 -3,-10.8 -6.2,-21.5 -4,-13.5 -8.2,-26.9 -8.2,-26.9 0,0 -1.8,4.8 -4.4,9.2 -3.2,5.5 -7.2,10.4 -7.2,10.4 l 4.8,50.9 c 0,0 6.3,-3.4 11.6,-7.9 z"
     id="path14943"
     clip-rule="evenodd"
     stroke-miterlimit="10" /><path
     style="fill:#8e9091;fill-rule:evenodd;stroke:#000000;stroke-width:0.5;stroke-miterlimit:10"
     inkscape:connector-curvature="0"
     class="st1"
     d="m 137.55,498.55 c 0.3,13 0.5,25.8 0.7,38.8 0.1,13.3 0.1,26.6 0.1,26.6 l 0,2.1 c 0,0 7.8,-1.3 14.6,-4.5 5.4,-2.4 10.8,-4.8 14.5,-8.8 4.5,-4.9 8.2,-10.7 9.7,-17.2 2.6,-10.7 2.4,-22.1 2.5,-33.6 0.1,-7.5 -0.9,-15 -1.7,-22.4 -0.7,-5.6 -2.4,-11 -2.4,-11 0,0 -0.8,-2.8 -1.9,-5.5 -1.9,-4.9 -3.8,-9.8 -6,-14.5 -2.4,-5 -5.3,-9.8 -8.1,-14.6 -3.4,-5.9 -7.1,-11.5 -7.1,-11.5 0,0 1.4,3 2.3,6.3 0.5,1.4 0.4,3 0.4,3 0,0 -1.4,3.3 -4,5 -2.2,1.5 -5.5,1.4 -5.5,1.4 l -5.6,0 c -0.7,0 -1.4,-0.1 -1.8,-0.5 -1.5,-1.6 -2.6,-3.9 -2.6,-3.9 0,0 1.2,32.4 1.9,64.8 l 0,0 z"
     id="path14949"
     clip-rule="evenodd"
     stroke-miterlimit="10" /><path
     style="fill:#e8f2f1;fill-rule:evenodd;stroke:#000000;stroke-width:0.5;stroke-miterlimit:10"
     inkscape:connector-curvature="0"
     class="st5"
     d="m 174.75,610.85 c -0.5,-0.6 -1.6,-0.4 -2.5,0.1 -0.9,0.6 -1.5,1.7 -2.2,2.9 l -15.3,24.6 c -0.9,1.6 -1.7,3.2 -2.3,4.9 -0.5,1.7 -0.9,3.4 -0.9,5 l 0.4,10.9 c 0,0 8.2,-11.8 15.3,-24.2 5.6,-9.9 10.3,-20.4 10.3,-20.4 l -2.8,-3.8 z"
     id="path14953"
     clip-rule="evenodd"
     stroke-miterlimit="10" /><path
     style="fill:#8e9091;fill-rule:evenodd;stroke:#000000;stroke-width:0.5;stroke-miterlimit:10"
     inkscape:connector-curvature="0"
     class="st1"
     d="m 134.95,416.35 3,0.2 c 0,0 1.2,-1.2 2.4,-1.6 1.2,-0.4 2.3,-0.6 3.5,-0.4 2.3,0.4 4.5,1.7 4.5,1.7 0,0 -3.2,-4.8 -6.6,-9.4 -3.7,-4.9 -7.5,-9.6 -7.5,-9.6 l 0.7,19.1 z"
     id="path14955"
     clip-rule="evenodd"
     stroke-miterlimit="10" /><path
     style="fill:none;stroke:#000000;stroke-width:0.70700002;stroke-linecap:round;stroke-linejoin:round;stroke-miterlimit:10"
     inkscape:connector-curvature="0"
     class="st6"
     d="m 148.45,416.35 c 0,0 1.3,1.4 2.4,2.9 1,1.4 1.7,3.2 1.7,3.2"
     id="path14957"
     clip-rule="evenodd"
     stroke-miterlimit="10" /><path
     style="fill:#e8f2f1;fill-rule:evenodd;stroke:#000000;stroke-width:0.5;stroke-miterlimit:10"
     inkscape:connector-curvature="0"
     class="st5"
     d="m 85.45,213.65 c 0.4,5.4 1,10.9 1.4,16.3 0.6,10.3 1.2,20.7 1.2,20.7 0,0 5.5,2.5 9.2,6.8 3.1,3.4 5.3,7.7 7.6,12 1.7,3.1 2.4,6.6 2.4,6.6 0,0 0.6,-9.6 0,-19.1 -0.4,-6.7 -1.2,-13.4 -2.7,-19.9 -1.1,-4.3 -2.5,-8.6 -5,-12.2 -3,-4 -7.2,-7.1 -11.2,-10.6 -0.7,-0.6 -1.7,-1.1 -2.6,-1.2 -0.2,0 -0.3,0.3 -0.3,0.6 z"
     id="path14961"
     clip-rule="evenodd"
     stroke-miterlimit="10" /><path
     style="fill:none;stroke:#000000;stroke-width:0.70700002;stroke-linecap:round;stroke-linejoin:round;stroke-miterlimit:10"
     inkscape:connector-curvature="0"
     class="st6"
     d="m 134.95,416.35 -4.4,-0.3 c -0.8,-0.1 -1.4,0.6 -1.8,1.5 -0.9,1.8 -1.5,3.7 -1.8,5.6 -0.1,1.5 -0.1,3 0.5,4.2 0.2,0.5 1,0.6 1.8,0.6 l 6.5,0.1 0.1,5.6"
     id="path14971"
     clip-rule="evenodd"
     stroke-miterlimit="10" /><path
     style="fill:#e8f2f1;fill-rule:evenodd;stroke:#000000;stroke-width:0.5;stroke-miterlimit:10"
     inkscape:connector-curvature="0"
     class="st5"
     d="m 137.85,463.85 c 0.4,13.8 1,27.7 1.3,41.5 0.3,13.8 0.4,27.6 0.5,41.5 0.1,8.2 0.1,16.3 0.1,16.3 0,0 5.5,-1.2 10.6,-3.5 4.9,-2.2 9.8,-4.4 14,-7.6 3,-2.2 5.6,-5.1 7.4,-8.4 2.2,-4 3.7,-8.4 4.4,-13 1.3,-7.9 1.7,-16 1.6,-24.1 -0.1,-10 -0.4,-20.1 -2.2,-29.7 -1.5,-7.8 -4.9,-15.3 -7.9,-23 -1.3,-3.2 -3.2,-6.2 -5,-9.4 -3.6,-6.5 -7.4,-12.9 -7.4,-12.9 0,0 -0.4,3.5 -2.4,5.6 -1.2,1.4 -3,2.2 -4.8,2.5 -3.2,0.6 -6.6,0.6 -9.6,0 -1.2,-0.2 -1.4,-1.9 -1.4,-1.9 0,0 0.4,13.1 0.8,26.1 l 0,0 z"
     id="path14973"
     clip-rule="evenodd"
     stroke-miterlimit="10" /><path
     style="fill:none;stroke:#000000;stroke-width:0.70700002;stroke-linecap:round;stroke-linejoin:round;stroke-miterlimit:10"
     inkscape:connector-curvature="0"
     class="st6"
     d="m 137.95,416.55 c 0,0 -0.5,2.7 -1.1,5.5 -0.6,3 -1.2,6.1 -1.2,6.1"
     id="path15183"
     clip-rule="evenodd"
     stroke-miterlimit="10" /><path
     style="fill:none;stroke:#000000;stroke-width:0.70700002;stroke-linecap:round;stroke-linejoin:round;stroke-miterlimit:10"
     inkscape:connector-curvature="0"
     class="st6"
     d="m 137.95,416.55 c 0,0 0.8,3.7 0.1,7.1 -0.5,2.4 -2.4,4.5 -2.4,4.5"
     id="path15185"
     clip-rule="evenodd"
     stroke-miterlimit="10" /><path
     style="fill:none;stroke:#000000;stroke-width:0.70700002;stroke-linecap:round;stroke-linejoin:round;stroke-miterlimit:10"
     inkscape:connector-curvature="0"
     class="st6"
     d="m 141.95,414.65 c 0,0 0.2,4.5 0.2,9.1 0,2 0.1,4 -0.1,5.9 -0.3,1.6 -0.9,3.1 -1.6,4.5 -0.4,0.7 -0.8,1.5 -1.4,1.8 -0.4,0.2 -1.1,0 -1.4,-0.4 -1.2,-1.2 -1.8,-3 -1.8,-3"
     id="path15187"
     clip-rule="evenodd"
     stroke-miterlimit="10" /><path
     style="fill:#e8f2f1;fill-rule:evenodd;stroke:#000000;stroke-width:0.5;stroke-miterlimit:10"
     inkscape:connector-curvature="0"
     class="st5"
     d="m 145.35,417.75 c 0,-0.1 0.1,-0.3 0.1,-0.3 0.4,-0.1 0.7,-0.1 0.9,0.1 0.3,0.3 0.4,0.8 0.4,1.2 l 0.3,19.3 c 0,0 -0.3,0.1 -0.6,0.1 -0.4,0 -0.7,0 -0.7,0 l -0.2,0 -0.2,-20.4 z"
     id="path15189"
     clip-rule="evenodd"
     stroke-miterlimit="10" /><path
     style="fill-rule:evenodd;stroke:#000000;stroke-width:0.5;stroke-miterlimit:10"
     inkscape:connector-curvature="0"
     class="st2"
     d="m 90.45,334.45 c -1.4,4.5 -3.7,8.9 -6.6,13 -2.9,4 -6.5,7.6 -10.4,10.4 -4,2.9 -8.4,5.1 -13,6.6 -4.6,1.4 -9.3,2.2 -14,2.2 -4.8,0 -9.4,-0.7 -14,-2.2 -4.6,-1.4 -9,-3.7 -13,-6.6 -4,-2.9 -7.6,-6.5 -10.4,-10.4 -2.9,-4 -5,-8.4 -6.6,-13 -1.4,-4.6 -2.2,-9.2 -2.2,-14 0,-4.7 0.7,-9.4 2.2,-14 1.5,-4.5 3.7,-9 6.6,-13 2.9,-4 6.5,-7.6 10.4,-10.4 4,-2.9 8.4,-5.1 13,-6.6 4.5,-1.4 9.2,-2.2 14,-2.2 4.7,0 9.4,0.7 14,2.2 4.5,1.4 9,3.7 13,6.6 4,2.9 7.6,6.5 10.4,10.4 2.9,4 5.1,8.4 6.6,13 1.4,4.6 2.2,9.3 2.2,14 0,4.8 -0.8,9.4 -2.2,14 l 0,0 z"
     id="path15239"
     clip-rule="evenodd"
     stroke-miterlimit="10" /><path
     style="fill-rule:evenodd;stroke:#000000;stroke-width:0.5;stroke-miterlimit:10"
     inkscape:connector-curvature="0"
     class="st2"
     d="m 90.45,683.95 c -1.4,4.6 -3.7,9 -6.6,13 -2.9,4 -6.5,7.6 -10.4,10.5 -4,2.9 -8.4,5 -13,6.6 -4.6,1.4 -9.3,2.2 -14,2.2 -4.8,0 -9.4,-0.7 -14,-2.2 -4.6,-1.5 -9,-3.7 -13,-6.6 -4,-3 -7.6,-6.5 -10.4,-10.5 -2.9,-4 -5,-8.4 -6.6,-13 -1.4,-4.5 -2.2,-9.2 -2.2,-14 0,-4.7 0.7,-9.4 2.2,-14 1.5,-4.5 3.7,-9 6.6,-13 2.9,-4 6.5,-7.6 10.4,-10.4 4,-2.9 8.4,-5.1 13,-6.6 4.5,-1.5 9.2,-2.2 14,-2.2 4.7,0 9.4,0.6 14,2.2 4.5,1.4 9,3.7 13,6.6 4,2.9 7.6,6.4 10.4,10.4 2.9,4 5.1,8.4 6.6,13 1.4,4.5 2.2,9.3 2.2,14 0,4.8 -0.8,9.5 -2.2,14 l 0,0 z"
     id="path15383"
     clip-rule="evenodd"
     stroke-miterlimit="10" /><path
     style="fill:none;stroke:#000000;stroke-width:0.70700002;stroke-linecap:round;stroke-linejoin:round;stroke-miterlimit:10"
     inkscape:connector-curvature="0"
     class="st6"
     d="m 137.05,437.85 c 0,0 -0.2,-0.6 -0.4,-1.3 -0.4,-1.4 -0.8,-2.8 -0.8,-2.8"
     id="path15531"
     clip-rule="evenodd"
     stroke-miterlimit="10" /><path
     style="fill:#e8f2f1;fill-rule:evenodd;stroke:#000000;stroke-width:0.5;stroke-miterlimit:10"
     inkscape:connector-curvature="0"
     class="st5"
     d="m 520.35,394.95 c 9.3,-16.5 19.7,-32.4 19.7,-32.4 l 0.1,24.5 c 0,3.5 -2.6,6.5 -4.7,9.9 -2.7,4.4 -6.3,8.3 -9.1,12.6 -4.1,6 -8.1,12.2 -11.7,18.4 -2.9,4.8 -5.5,9.7 -8.1,14.7 -1.7,3.1 -2.7,6.6 -4.2,8.5 -0.4,0.4 -1,-0.2 -1.7,-0.9 l -4.5,-5.5 c 0,0 3.5,-9.5 8,-18.5 5,-10.6 10.4,-21.1 16.2,-31.3 l 0,0 z"
     id="path15657"
     clip-rule="evenodd"
     stroke-miterlimit="10" /><path
     style="fill:#ed2129;fill-rule:evenodd;stroke:#000000;stroke-width:0.5;stroke-miterlimit:10"
     inkscape:connector-curvature="0"
     class="st8"
     d="m 558.95,757.65 c -2.5,-2.1 -4.5,-4.8 -6.3,-7.6 -2.1,-3 -3.3,-6.6 -3.3,-6.6 0,0 3,-10.8 6.2,-21.5 4,-13.5 8.2,-26.9 8.2,-26.9 0,0 1.8,4.9 4.4,9.3 3.2,5.4 7.2,10.4 7.2,10.4 l -4.8,51 c 0,-0.1 -6.3,-3.5 -11.6,-8.1 z"
     id="path15663"
     clip-rule="evenodd"
     stroke-miterlimit="10" /><path
     style="fill:#4b5353;fill-rule:evenodd;stroke:#000000;stroke-width:0.5;stroke-miterlimit:10"
     inkscape:connector-curvature="0"
     class="st3"
     d="m 536.75,644.45 c 1.1,-10.1 1.9,-20.2 2.4,-30.3 1.2,-24 1.3,-48 1.3,-48 0,0 -7.8,-1.4 -14.7,-4.5 -5.4,-2.4 -10.8,-4.8 -14.5,-8.8 -4.5,-4.9 -8.2,-10.7 -9.7,-17.2 -2.6,-10.6 -2.4,-22.1 -2.5,-33.6 -0.1,-7.5 0.9,-14.9 1.7,-22.4 0.7,-5.5 2.4,-10.9 2.4,-10.9 0,0 -3.8,-1.4 -6.6,-4 -3.2,-3.1 -5.3,-7.5 -5.3,-7.5 0,0 -3,9.4 -4.2,19 -1.8,14.8 -3.6,29.4 -3.5,44.2 0.1,16.6 1.9,33.3 4.2,49.9 1.2,9.4 3.7,18.7 6.4,28 1.5,5.4 3.8,10.5 6,15.8 0.2,0.4 0.9,0.6 0.9,0.6 l 3,-3.8 c 0.5,-0.7 1.6,-0.5 2.5,0.1 0.9,0.6 1.5,1.8 2.2,3 l 15.3,24.6 c 0.9,1.5 1.7,3.2 2.3,4.9 0.5,1.7 0.9,3.3 0.9,5 l -0.4,10.8 c 0,0 -0.1,0.9 0.3,1.5 3,4.4 6.5,8.5 6.5,8.5 0,0 1.8,-12.5 3.1,-24.9 z"
     id="path15671"
     clip-rule="evenodd"
     stroke-miterlimit="10" /><path
     style="fill:#e8f2f1;fill-rule:evenodd;stroke:#000000;stroke-width:0.5;stroke-miterlimit:10"
     inkscape:connector-curvature="0"
     class="st5"
     d="m 503.95,610.95 c 0.5,-0.7 1.6,-0.5 2.5,0.1 0.9,0.6 1.5,1.8 2.2,3 l 15.3,24.6 c 0.9,1.5 1.7,3.2 2.3,4.9 0.5,1.7 0.9,3.3 0.9,5 l -0.4,10.8 c 0,0 -8.2,-11.7 -15.3,-24.2 -5.6,-9.9 -10.3,-20.3 -10.3,-20.3 l 2.8,-3.9 z"
     id="path15673"
     clip-rule="evenodd"
     stroke-miterlimit="10" /><path
     style="fill:#e8f2f1;fill-rule:evenodd;stroke:#000000;stroke-width:0.5;stroke-miterlimit:10"
     inkscape:connector-curvature="0"
     class="st5"
     d="m 593.35,213.75 c -0.4,5.4 -1,10.8 -1.4,16.3 -0.6,10.3 -1.2,20.6 -1.2,20.6 0,0 -5.5,2.6 -9.2,6.8 -3.1,3.5 -5.3,7.7 -7.6,12 -1.7,3.1 -2.4,6.6 -2.4,6.6 0,0 -0.6,-9.6 0,-19.1 0.4,-6.7 1.2,-13.4 2.7,-19.8 1.1,-4.4 2.5,-8.6 5,-12.2 3,-4 7.2,-7.1 11.2,-10.7 0.7,-0.6 1.7,-1 2.6,-1.2 0.2,0 0.3,0.3 0.3,0.7 l 0,0 z"
     id="path15681"
     clip-rule="evenodd"
     stroke-miterlimit="10" /><path
     style="fill-rule:evenodd;stroke:#000000;stroke-width:0.5;stroke-miterlimit:10"
     inkscape:connector-curvature="0"
     class="st2"
     d="m 588.35,334.55 c 1.4,4.5 3.7,9 6.6,13 2.9,4 6.5,7.6 10.4,10.4 3.9,2.8 8.4,5.1 13,6.6 4.6,1.4 9.3,2.2 14,2.2 4.8,0 9.4,-0.7 14,-2.2 4.6,-1.4 9,-3.7 13,-6.6 4,-2.9 7.6,-6.5 10.4,-10.4 2.9,-4 5,-8.4 6.6,-13 1.4,-4.6 2.2,-9.3 2.2,-14 0,-4.8 -0.7,-9.4 -2.2,-14 -1.5,-4.6 -3.7,-9 -6.6,-13 -2.9,-4 -6.5,-7.6 -10.4,-10.4 -4,-2.9 -8.4,-5 -13,-6.6 -4.5,-1.4 -9.2,-2.2 -14,-2.2 -4.7,0 -9.4,0.7 -14,2.2 -4.5,1.5 -9,3.7 -13,6.6 -4,2.9 -7.6,6.5 -10.4,10.4 -2.9,4 -5.1,8.4 -6.6,13 -1.4,4.5 -2.2,9.2 -2.2,14 0,4.7 0.8,9.4 2.2,14 z"
     id="path15959"
     clip-rule="evenodd"
     stroke-miterlimit="10" /><path
     style="fill-rule:evenodd;stroke:#000000;stroke-width:0.5;stroke-miterlimit:10"
     inkscape:connector-curvature="0"
     class="st2"
     d="m 588.35,684.05 c 1.4,4.5 3.7,8.9 6.6,13 2.9,4 6.5,7.6 10.4,10.4 3.9,2.8 8.4,5.1 13,6.6 4.6,1.4 9.3,2.2 14,2.2 4.8,0 9.4,-0.7 14,-2.2 4.6,-1.4 9,-3.7 13,-6.6 4,-2.9 7.6,-6.5 10.4,-10.4 2.9,-4 5,-8.4 6.6,-13 1.4,-4.6 2.2,-9.3 2.2,-14 0,-4.8 -0.7,-9.4 -2.2,-14 -1.5,-4.5 -3.7,-8.9 -6.6,-12.9 -2.9,-4 -6.5,-7.6 -10.4,-10.4 -4,-2.9 -8.4,-5.1 -13,-6.6 -4.5,-1.4 -9.2,-2.2 -14,-2.2 -4.7,0 -9.4,0.7 -14,2.2 -4.5,1.4 -9,3.7 -13,6.6 -4,2.9 -7.6,6.5 -10.4,10.4 -2.9,4 -5.1,8.4 -6.6,12.9 -1.4,4.6 -2.2,9.3 -2.2,14 0,4.7 0.8,9.4 2.2,14 l 0,0 z"
     id="path16103"
     clip-rule="evenodd"
     stroke-miterlimit="10" /><path
     style="fill:#8e9091;fill-rule:evenodd;stroke:#000000;stroke-width:0.5;stroke-miterlimit:10"
     inkscape:connector-curvature="0"
     class="st1"
     d="m 230.05,517.95 c 0.1,6.4 0.3,12.9 0.4,19.4 0.4,14.6 1,29.2 1,29.2 0,0 7.1,-3.5 10.9,-9.1 3,-4.4 4.7,-9.8 5.8,-15.3 1.3,-6.6 1,-13.6 1.2,-20.5 0.3,-6.6 0.3,-13.1 0.3,-19.6 0,-7.3 -0.1,-14.5 -0.4,-21.7 -0.2,-5.8 -0.8,-11.5 -0.8,-11.5 0,0 -1.7,-10.2 -3.6,-20.3 -0.9,-4.9 -2,-9.8 -3.2,-14.6 -0.9,-3.9 -1.8,-7.7 -2.8,-11.5 -0.5,-2 -1.1,-4 -1.7,-6 -0.8,-3.1 -1.7,-6.3 -2.5,-9.4 -1.4,-4.8 -2.9,-9.6 -2.9,-9.6 0,0 -0.2,4.3 -0.4,8.7 -0.3,7.6 -0.6,15.3 -0.9,22.9 -0.2,5.4 -0.4,10.8 -0.4,16.2 -0.1,5.4 -0.3,10.8 -0.4,16.2 0,6.2 -0.1,12.4 -0.1,18.6 0,6.2 0,12.4 0.1,18.6 0.2,6.3 0.3,12.8 0.4,19.3 l 0,0 z"
     id="path16269"
     clip-rule="evenodd"
     stroke-miterlimit="10" /><path
     style="fill:#e8f2f1;fill-rule:evenodd;stroke:#000000;stroke-width:0.5;stroke-miterlimit:10"
     inkscape:connector-curvature="0"
     class="st5"
     d="m 230.95,439.05 c -0.3,8.3 -0.4,16.5 -0.5,24.8 -0.1,6.9 -0.1,13.8 -0.1,20.8 0,6.9 0.1,13.8 0.1,20.7 0.1,6.9 0.2,13.8 0.4,20.7 0.1,6.9 0.2,13.8 0.5,20.7 0.3,7.8 0.9,15.5 0.9,15.5 l 1.8,1.2 c 0,0 3.6,-2.4 6,-5.7 2.2,-3 4,-6.3 5.1,-9.7 1.5,-4.7 2.2,-9.5 2.5,-14.5 0.6,-9.9 0.6,-19.9 0.6,-29.9 0,-8.9 0,-17.8 -0.6,-26.6 -0.6,-7.8 -1.9,-15.5 -3,-23.2 -0.5,-3.5 -1.2,-7 -1.9,-10.4 -0.9,-4 -1.8,-7.9 -2.7,-11.8 -0.9,-4.2 -1.9,-8.3 -1.9,-8.3 l -2.2,-0.2 -4,-3.9 c 0,0.1 -0.7,9.9 -1,19.8 l 0,0 z"
     id="path16271"
     clip-rule="evenodd"
     stroke-miterlimit="10" /><path
     style="fill:#ed2129;fill-rule:evenodd;stroke:#000000;stroke-width:0.5;stroke-miterlimit:10"
     inkscape:connector-curvature="0"
     class="st8"
     d="m 222.15,704.25 c 1.7,3.2 3.4,6.5 5.4,9.4 2.2,3.4 4.7,6.7 7.4,9.6 3.2,3.3 6.4,6.6 10.2,9.1 8.9,6.1 18.9,10.7 18.9,10.7 0,0 0.9,6.1 3,11.7 1.9,5.3 5.1,10.2 5.1,10.2 0,0 -8.4,-2.7 -16.3,-6.5 -3,-1.4 -5.7,-3.1 -8.3,-5 -3.2,-2.4 -6.4,-4.8 -9.1,-7.8 -4.4,-5 -8.5,-10.2 -12,-15.8 -2.5,-4 -4.7,-8.1 -5.9,-12.6 -1.2,-3.9 -0.9,-8.2 -1.2,-12.4 -0.4,-4.2 -0.4,-8.3 -0.4,-8.3 0,0 1.3,3.9 3.2,7.7 z"
     id="path16277"
     clip-rule="evenodd"
     stroke-miterlimit="10" /><path
     style="fill:none;stroke:#000000;stroke-width:0.70700002;stroke-linecap:round;stroke-linejoin:round;stroke-miterlimit:10"
     inkscape:connector-curvature="0"
     class="st6"
     d="m 264.05,743.05 c 0,0 7.1,3.2 14.5,5 13.2,3.2 26.9,5.1 26.9,5.1"
     id="path16293"
     clip-rule="evenodd"
     stroke-miterlimit="10" /><path
     style="fill:none;stroke:#000000;stroke-width:0.70700002;stroke-linecap:round;stroke-linejoin:round;stroke-miterlimit:10"
     inkscape:connector-curvature="0"
     class="st6"
     d="m 236.35,381.85 c 0,0 -2.4,4.5 -3.7,9.1 -0.9,3 -0.7,6.3 -0.7,6.3"
     id="path16295"
     clip-rule="evenodd"
     stroke-miterlimit="10" /><path
     style="fill:none;stroke:#000000;stroke-width:0.70700002;stroke-linecap:round;stroke-linejoin:round;stroke-miterlimit:10"
     inkscape:connector-curvature="0"
     class="st6"
     d="m 219.05,699.45 c 0,0 1.9,4.8 4.5,9.1 2.2,3.7 4.3,7.5 7,10.8 3.7,4.5 7.6,8.7 12,12.4 4.1,3.4 8.9,5.8 13.5,8.6 3,1.7 6.3,3.1 6.3,3.1 0,0 0.8,5.8 2.7,11.2 1.7,4.9 4.7,9.4 4.7,9.4"
     id="path16335"
     clip-rule="evenodd"
     stroke-miterlimit="10" /><path
     style="fill:none;stroke:#000000;stroke-width:0.70700002;stroke-linecap:round;stroke-linejoin:round;stroke-miterlimit:10"
     inkscape:connector-curvature="0"
     class="st6"
     d="m 221.05,704.15 c 0,0 -0.1,3.5 0.3,6.9 0.2,2.7 0.2,5.5 1.1,7.9 1.2,3.4 3,6.5 5,9.6 2.7,4.2 5.4,8.4 8.7,11.9 3.9,4 8.3,7.5 12.9,10.8 3.6,2.5 7.6,4.5 11.6,6.5 3.4,1.8 7.1,3.1 7.1,3.1"
     id="path16337"
     clip-rule="evenodd"
     stroke-miterlimit="10" /><path
     style="fill:none;stroke:#000000;stroke-width:0.70700002;stroke-linecap:round;stroke-linejoin:round;stroke-miterlimit:10"
     inkscape:connector-curvature="0"
     class="st6"
     d="m 224.45,710.35 c 0,0 -0.9,0.8 -1.4,1.8 -0.9,2 -1.3,4.2 -1.3,4.2"
     id="path16339"
     clip-rule="evenodd"
     stroke-miterlimit="10" /><path
     style="fill:none;stroke:#000000;stroke-width:0.70700002;stroke-linecap:round;stroke-linejoin:round;stroke-miterlimit:10"
     inkscape:connector-curvature="0"
     class="st6"
     d="m 247.15,735.15 -3.4,0 c 0,0 0.1,-0.6 0.4,-1.1 0.2,-0.4 0.6,-0.6 0.6,-0.6"
     id="path16349"
     clip-rule="evenodd"
     stroke-miterlimit="10" /><path
     style="fill:#4b5353;fill-rule:evenodd;stroke:#000000;stroke-width:0.5;stroke-miterlimit:10"
     inkscape:connector-curvature="0"
     class="st3"
     d="m 385.35,459.95 c 20.5,2.7 40.5,8.9 40.5,8.9 0,0 -0.6,5.8 -0.8,11.5 -0.2,7.2 -0.4,14.4 -0.4,21.7 0,6.5 0,13 0.3,19.6 0.3,6.9 0,13.9 1.2,20.5 1.1,5.5 2.7,10.9 5.8,15.3 3.9,5.7 10.9,9.1 10.9,9.1 0,0 -1,23.9 -5,47.2 -1.3,8 -3.5,15.8 -6.9,23 -2.8,6 -6.6,11.5 -11.4,15.9 -4.5,4.2 -10.2,7.4 -16.1,9.7 -8.6,3.4 -17.7,5.7 -26.9,7.2 -11.2,1.9 -22.8,2.3 -34.3,3.1 -3.4,0.2 -6.8,0.2 -10.2,0 -11.5,-0.8 -23,-1.2 -34.3,-3.1 -9.2,-1.5 -18.3,-3.8 -26.9,-7.2 -6,-2.3 -11.6,-5.5 -16.1,-9.7 -4.8,-4.4 -8.6,-9.9 -11.4,-15.9 -3.4,-7.2 -5.5,-15 -6.9,-23 -4,-23.3 -5,-47.2 -5,-47.2 0,0 7.1,-3.5 10.9,-9.1 3,-4.4 4.7,-9.8 5.8,-15.3 1.3,-6.6 1,-13.6 1.2,-20.5 0.3,-6.6 0.3,-13.1 0.3,-19.6 0,-7.3 -0.1,-14.5 -0.4,-21.7 -0.2,-5.8 -0.8,-11.5 -0.8,-11.5 0,0 19.9,-6.2 40.5,-8.9 15,-2 30.2,-1.7 45.5,-2.5 1.8,-0.1 3.6,-0.1 5.5,0 15.2,0.7 30.5,0.4 45.4,2.5 l 0,0 z"
     id="path16391"
     clip-rule="evenodd"
     stroke-miterlimit="10" /><path
     style="fill:#e8f2f1;fill-rule:evenodd;stroke:#000000;stroke-width:0.5;stroke-miterlimit:10"
     inkscape:connector-curvature="0"
     class="st5"
     d="m 367.75,658.25 c 7.1,-1.1 14.3,-2.5 21.2,-4.7 4.4,-1.4 8.6,-3.3 12.2,-5.9 2.4,-1.7 4.5,-3.7 5,-6.4 1.1,-5.4 0.3,-11.5 -0.2,-17.6 -0.3,-3.5 -0.9,-6.9 -2.1,-9.9 -0.6,-1.4 -1.7,-2.5 -3.1,-2.6 -7,-0.2 -14.5,1.2 -22.2,1.7 -11.7,0.9 -23.5,1.8 -35.3,2.4 -4,0.2 -8.1,0.2 -12.2,0 -11.7,-0.6 -23.5,-1.5 -35.3,-2.4 -7.6,-0.5 -15.2,-1.9 -22.2,-1.7 -1.4,0.1 -2.4,1.2 -3.1,2.6 -1.2,3 -1.8,6.5 -2.1,9.9 -0.5,6.1 -1.3,12.2 -0.2,17.6 0.5,2.7 2.6,4.7 5,6.4 3.6,2.6 7.8,4.5 12.2,5.9 6.8,2.2 14,3.6 21.2,4.7 7.1,1.2 14.4,1.7 21.7,2.2 5.9,0.3 11.8,0.3 17.6,0 7.4,-0.5 14.7,-1.1 21.9,-2.2 l 0,0 z"
     id="path16393"
     clip-rule="evenodd"
     stroke-miterlimit="10" /><path
     style="fill:none;stroke:#000000;stroke-width:0.70700002;stroke-linecap:round;stroke-linejoin:round;stroke-miterlimit:10"
     inkscape:connector-curvature="0"
     class="st6"
     d="m 425.75,470.25 c 0,0 -19.9,-6.3 -40.4,-8.9 -15,-2 -30.2,-1.8 -45.4,-2.5 -1.9,-0.1 -3.7,-0.1 -5.5,0 -15.3,0.7 -30.5,0.5 -45.5,2.5 -20.4,2.7 -40.4,8.9 -40.4,8.9"
     id="path16395"
     clip-rule="evenodd"
     stroke-miterlimit="10" /><path
     style="fill:#8e9091;fill-rule:evenodd;stroke:#000000;stroke-width:0.5;stroke-miterlimit:10"
     inkscape:connector-curvature="0"
     class="st1"
     d="m 369.25,450.45 c 8.7,0.7 17.4,1.6 25.9,2.7 6.2,0.7 12.2,2 18.3,2.6 2,0.1 4,0.2 5.6,-0.5 1.6,-0.8 3,-1.9 3.5,-3.7 8.9,-34.2 15.5,-69.6 15.5,-69.6 0,0 -1,-3.9 -3.3,-7 -2.2,-3 -4.5,-6 -7.6,-8 -7.4,-4.8 -15.3,-8.9 -23.5,-12 -7.8,-3 -16,-4.7 -24.3,-6.1 -10.3,-1.7 -20.7,-2.5 -31.2,-3.1 -7.2,-0.4 -14.5,-0.4 -21.7,0 -10.4,0.6 -21,1.4 -31.2,3.1 -8.3,1.4 -16.5,3.2 -24.3,6.1 -8.3,3.1 -16.1,7.3 -23.5,12 -3.1,1.9 -5.4,5 -7.6,8 -2.2,3.1 -3.3,7 -3.3,7 0,0 6.6,35.4 15.5,69.6 0.4,1.7 1.9,2.9 3.5,3.7 1.6,0.7 3.5,0.6 5.5,0.5 6,-0.6 12.2,-1.9 18.3,-2.6 8.6,-1.1 17.3,-1.9 25.9,-2.7 7.3,-0.6 14.6,-1 22,-1.2 6.8,-0.1 13.5,-0.1 20.3,0 7.1,0.2 14.4,0.6 21.7,1.2 z"
     id="path16397"
     clip-rule="evenodd"
     stroke-miterlimit="10" /><path
     style="fill:none;stroke:#000000;stroke-width:0.70700002;stroke-linecap:round;stroke-linejoin:round;stroke-miterlimit:10"
     inkscape:connector-curvature="0"
     class="st6"
     d="m 410.55,741.85 c 0,0 -6.6,2.5 -13.2,4.1 -7.8,1.9 -15.7,3.5 -23.6,4.8 -6.4,1 -12.9,1.4 -19.4,1.9 -4,0.3 -8.1,0.4 -12.1,0.5 -3.3,0.1 -6.6,0.1 -10,0 -4,-0.1 -8.1,-0.2 -12.1,-0.5 -6.5,-0.5 -13,-0.9 -19.3,-1.9 -8,-1.2 -15.8,-2.9 -23.6,-4.8 -6.8,-1.6 -13.3,-4.1 -13.3,-4.1"
     id="path16409"
     clip-rule="evenodd"
     stroke-miterlimit="10" /><path
     style="fill:#ed2129;fill-rule:evenodd;stroke:#000000;stroke-width:0.5;stroke-miterlimit:10"
     inkscape:connector-curvature="0"
     class="st8"
     d="m 359.25,758.65 c 2.3,-0.2 4.7,-0.5 6.6,-1.6 2,-1.2 3.1,-3.9 3.1,-3.9 0,0 -7.8,0.9 -15.6,1.4 -3.9,0.2 -7.8,0.1 -11.7,0.2 -3,0 -5.9,0 -8.9,0 -3.9,-0.1 -7.8,0 -11.7,-0.2 -7.8,-0.5 -15.6,-1.4 -15.6,-1.4 0,0 1.1,2.7 3.1,3.9 1.9,1.1 4.2,1.4 6.6,1.6 5.8,0.6 11.5,0.9 17.4,1.1 3.1,0.1 6.2,0.1 9.3,0 5.8,-0.2 11.6,-0.5 17.4,-1.1 z"
     id="path16411"
     clip-rule="evenodd"
     stroke-miterlimit="10" /><path
     style="opacity:0.01000001;fill:#ffffff;fill-rule:evenodd;stroke:#000000;stroke-width:0.70700002;stroke-linecap:round;stroke-linejoin:round;stroke-miterlimit:10"
     inkscape:connector-curvature="0"
     class="st11 test"
     d="m -159.16711,408.75052 c -4.9,-1.6 -10.2,-1.5 -15.4,-1.4 -18.1,0.3 -36.2,0.7 -54.2,1 -3.9,0.1 -8.6,0.6 -10.5,4 -1,1.7 -0.9,3.8 -0.9,5.8 0.9,41.5 1.8,83.1 2.7,124.6 0.1,6.6 0.4,13.4 3.6,19.1 4.7,8.1 14.3,11.8 23.1,14.8 15.3,5.3 30.6,10.6 45.8,15.8 3.1,1.1 6.4,2.2 9.7,2 2.6,-0.2 5.1,-1.2 7.5,-2.1 6.3,-2.6 12.7,-5.1 19,-7.7 4.9,-2 9.9,-4 14.1,-7.2 6.9,-5.3 11.1,-13.4 13.2,-21.8 2.100001,-8.4 2.200001,-17.1 2.100001,-25.8 -0.1,-13.2 -0.800001,-26.6 -4.000001,-39.4 -6.7,-26 -23.3,-49.4 -39.9,-69.9 -4.2,-5 -9.4,-9.7 -15.9,-11.8 z"
     id="LeftFrontDoor"
     clip-rule="evenodd"
     stroke-miterlimit="10" /></svg>