<svg xmlns="http://www.w3.org/2000/svg" xmlns:se="http://svg-edit.googlecode.com" xmlns:xlink="http://www.w3.org/1999/xlink" xmlns:dc="http://purl.org/dc/elements/1.1/" xmlns:cc="http://creativecommons.org/ns#" xmlns:rdf="http://www.w3.org/1999/02/22-rdf-syntax-ns#" xmlns:inkscape="http://www.inkscape.org/namespaces/inkscape" width="777" height="480">


     <path d="M 214.064 176.821L 255.494 176.821C 278.042 176.821 290.006 189.137 295.528 203.546L 324.863 279.215C 336.483 280.705 357.081 294.361 357.081 320.2L 357.081 416.445L 328.554 416.445L 328.554 447.214C 328.554 485.084 274.955 484.638 274.955 447.214L 274.955 416.445L 178.566 416.445L 178.512 416.445L 178.568 416.445L 178.516 416.445L 82.127 416.445L 82.127 447.214C 82.127 484.638 28.528 485.084 28.528 447.214L 28.528 416.445L 0 416.445L 0 320.2C 0 294.361 20.577 280.705 32.197 279.215L 61.532 203.546C 67.054 189.137 79.019 176.821 101.567 176.821L 143.478 176.821L 214.064 176.821z" id="path2301" style="stroke:none; fill:#000000"/>
     <path d="M 101.99 148.102C 142.476 148.102 175.295 114.948 175.295 74.053C 175.295 33.154 142.476 0 101.99 0C 61.506 0 28.684 33.154 28.684 74.053C 28.684 114.948 61.506 148.102 101.99 148.102z" id="path2307" style="stroke:none; fill:#000000"/>
     <path d="M 156.681 37.263L 313.234 37.263L 338.378 62.663C 343.004 67.336 342.886 70.572 338.378 75.124L 307.779 106.032L 289.752 87.825L 271.724 106.032L 253.932 88.063L 236.618 105.553L 218.59 87.346L 195.105 111.066L 156.681 111.066L 156.681 37.263z" id="path2311" style="stroke:none; fill:#000000"/>
     <path d="M 178.512 278.445L 178.458 278.445L 62.568 278.445L 84.655 218.885C 87.416 210.518 91.559 204.476 101.223 204.386L 178.458 204.386L 178.512 204.386L 178.566 204.386L 255.84 204.386C 265.503 204.476 269.645 210.518 272.406 218.885L 294.492 278.445L 178.566 278.445L 178.512 278.445z" id="path2315" style="stroke:none; fill:#ffffff"/>
     <path d="M 56.18 358.445C 42.508 358.445 31.422 347.019 31.422 332.926C 31.422 318.834 42.508 307.409 56.18 307.409C 69.853 307.409 80.937 318.834 80.937 332.926C 80.937 347.019 69.853 358.445 56.18 358.445z" id="path2321" style="stroke:none; fill:#ffffff"/>
     <path d="M 300.881 358.445C 314.554 358.445 325.638 347.019 325.638 332.926C 325.638 318.834 314.554 307.409 300.881 307.409C 287.209 307.409 276.123 318.834 276.123 332.926C 276.123 347.019 287.209 358.445 300.881 358.445z" id="path2327" style="stroke:none; fill:#ffffff"/>
     <path d="M 69.789 93.342C 80.534 93.342 89.246 84.54 89.246 73.686C 89.246 62.831 80.534 54.03 69.789 54.03C 59.044 54.03 50.332 62.831 50.332 73.686C 50.332 84.54 59.044 93.342 69.789 93.342z" id="path2333" style="stroke:none; fill:#ffffff"/>



</svg>